<svg width="375" height="343" viewBox="0 0 375 343" fill="none" xmlns="http://www.w3.org/2000/svg">
<mask id="mask0_254_5820" style="mask-type:alpha" maskUnits="userSpaceOnUse" x="0" y="-1" width="375" height="345">
<path d="M0 39.0001C0 16.9087 17.9086 -0.999878 40 -0.999878H335C357.091 -0.999878 375 16.9087 375 39.0001V343H0V39.0001Z" fill="#D9D9D9"/>
</mask>
<g mask="url(#mask0_254_5820)">
<path d="M122.821 264.67C7.24011 272.7 -12.2434 387.722 -7.5375 444.23C-167.68 187.457 -16.0666 12.6488 175.879 -36.3071C329.436 -75.4719 434.305 6.11586 430.836 105.771C415.878 267.101 267.298 254.632 122.821 264.67Z" fill="#F7FAFF"/>
<path d="M47.0532 200.917C-19.3101 229.102 -11.6166 306.733 0.525616 342.026C-135.921 209.309 -76.1555 67.011 28.1378 -2.63365C111.572 -58.3493 186.547 -26.9389 201.068 37.6481C219.103 144.069 130.007 165.686 47.0532 200.917Z" fill="#EBF2FD"/>
</g>
</svg>
